# 3ds Max Wavefront OBJ Exporter v0.97b - (c)2007 guruware
# File Created: 29.09.2022 17:39:43

#
# object Plane002
#

v  -113.762314 -4.183239 11.227950
v  -113.762314 26.468166 11.227949
v  -105.778030 26.468166 40.437828
v  -105.778030 -4.183240 40.437828
# 4 vertices

vn 0.964613 0.000000 -0.263669
# 1 vertex normals

vt 0.000000 0.000000 0.000000
vt 1.000000 0.000000 0.000000
vt 1.000000 1.000000 0.000000
vt 0.000000 1.000000 0.000000
# 4 texture coords

g Plane002
s 1
f 1/1/1 2/2/1 3/3/1 
f 3/3/1 4/4/1 1/1/1 
# 2 faces

